<svg width="80" height="80" viewBox="0 0 80 80" fill="none" xmlns="http://www.w3.org/2000/svg">
<circle cx="40" cy="40" r="40" fill="white"/>
<g clip-path="url(#clip0)">
<path d="M32.0006 35.2113C39.5086 35.2113 45.595 41.2977 45.595 48.8057C45.595 56.3136 39.5086 62.4001 32.0006 62.4001C24.4927 62.4001 18.4062 56.3136 18.4062 48.8057C18.4062 41.2977 24.4927 35.2113 32.0006 35.2113Z" fill="#E85C72"/>
<path d="M32.0005 59.5874C37.9551 59.5874 42.7822 54.7603 42.7822 48.8057C42.7822 42.8511 37.9551 38.0239 32.0005 38.0239C26.0459 38.0239 21.2188 42.8511 21.2188 48.8057C21.2188 54.7603 26.0459 59.5874 32.0005 59.5874Z" fill="#CD4F64"/>
<path d="M34.7389 44.0129H31.1492C29.6915 44.0129 28.5098 45.1947 28.5098 46.6524V46.6524C28.5098 48.1102 29.6915 49.2919 31.1492 49.2919H32.5746C34.0032 49.2919 35.1612 50.45 35.1612 51.8786V51.8786C35.1612 53.3072 34.0031 54.4653 32.5746 54.4653H28.5098" stroke="#FFBDC7" stroke-width="2" stroke-linecap="round"/>
<path d="M31.7656 41.2681V44.0131" stroke="#FFBDC7" stroke-width="2" stroke-linecap="round"/>
<path d="M31.7656 55.1597V57.1047" stroke="#FFBDC7" stroke-width="2" stroke-linecap="round"/>
<path d="M36.4077 31.0932C36.2642 38.7535 42.4342 45.002 50.1035 44.9455C51.7828 44.9331 52.1395 47.3078 50.5363 47.8079C49.2326 48.2147 47.8449 48.4303 46.4062 48.4221C37.115 48.3694 30.7301 39.3189 33.5504 30.6279C34.0688 29.0306 36.4393 29.4141 36.4077 31.0932Z" fill="black" fill-opacity="0.1"/>
</g>
<g clip-path="url(#clip1)">
<path d="M48.0006 20.0114C55.5086 20.0114 61.595 26.0978 61.595 33.6057C61.595 41.1137 55.5086 47.2001 48.0006 47.2001C40.4927 47.2001 34.4062 41.1137 34.4062 33.6057C34.4062 26.0978 40.4927 20.0114 48.0006 20.0114Z" fill="#E85C72"/>
<path d="M51.6781 23.5089C44.0171 23.4089 37.8038 29.6143 37.9039 37.2832C37.9258 38.9624 35.5532 39.3325 35.0439 37.7322C34.6297 36.4308 34.4062 35.0443 34.4062 33.6057C34.4062 24.3143 43.4203 17.8781 52.1272 20.6489C53.7274 21.1583 53.3573 23.5309 51.6781 23.5089Z" fill="#F5798C"/>
<path d="M48.0005 44.3875C53.9551 44.3875 58.7822 39.5603 58.7822 33.6057C58.7822 27.6511 53.9551 22.824 48.0005 22.824C42.0459 22.824 37.2188 27.6511 37.2188 33.6057C37.2188 39.5603 42.0459 44.3875 48.0005 44.3875Z" fill="#CD4F64"/>
<path d="M50.7389 28.813H47.1492C45.6915 28.813 44.5098 29.9947 44.5098 31.4525V31.4525C44.5098 32.9102 45.6915 34.0919 47.1492 34.0919H48.5746C50.0032 34.0919 51.1612 35.25 51.1612 36.6786V36.6786C51.1612 38.1072 50.0031 39.2653 48.5746 39.2653H44.5098" stroke="#FFBDC7" stroke-width="2" stroke-linecap="round"/>
<path d="M47.7656 26.0681V28.8132" stroke="#FFBDC7" stroke-width="2" stroke-linecap="round"/>
<path d="M47.7656 39.9597V41.9048" stroke="#FFBDC7" stroke-width="2" stroke-linecap="round"/>
</g>
<defs>
<clipPath id="clip0">
<rect x="18.4004" y="35.2" width="27.2" height="27.2" fill="white"/>
</clipPath>
<clipPath id="clip1">
<rect x="34.4004" y="20" width="27.2" height="27.2" fill="white"/>
</clipPath>
</defs>
</svg>
