<svg width="84" height="88" viewBox="0 0 84 88" fill="none" xmlns="http://www.w3.org/2000/svg">
<g filter="url(#filter0_d)">
<circle cx="42" cy="40" r="40" fill="white"/>
</g>
<mask id="mask0" mask-type="alpha" maskUnits="userSpaceOnUse" x="20" y="26" width="44" height="28">
<path d="M52.8238 26.52L63.0759 32.9335C63.3097 33.0798 63.4516 33.336 63.4516 33.6118V46.0876C63.4516 46.3574 63.3156 46.6091 63.0899 46.7569L52.823 53.48C52.8158 53.4896 52.8078 53.4896 52.7998 53.4896C52.7998 53.4976 52.7918 53.4976 52.7918 53.4976C52.7358 53.5296 52.6798 53.5536 52.6238 53.5696C52.5518 53.5936 52.4798 53.6016 52.4078 53.6016C52.3358 53.6016 52.2638 53.5936 52.1918 53.5696C52.1838 53.5696 52.1838 53.5696 52.1758 53.5616H52.1598C52.1278 53.5536 52.0958 53.5376 52.0718 53.5208C52.0638 53.5128 52.0558 53.5128 52.0478 53.504C52.0318 53.504 52.0238 53.496 52.0078 53.4872H51.9998C51.9918 53.4872 51.9918 53.4872 51.9838 53.4792L41.9998 47.32L32.0166 53.48C32.0086 53.4896 32.0006 53.4896 31.9926 53.4896C31.9926 53.4976 31.9846 53.4976 31.9846 53.4976C31.8646 53.5696 31.7286 53.6016 31.5926 53.6016C31.4566 53.6016 31.3206 53.5696 31.2006 53.4896C31.1926 53.4896 31.1846 53.4896 31.1766 53.48L20.7766 47.064C20.5366 46.92 20.3926 46.664 20.3926 46.384V33.616C20.3926 33.328 20.5526 33.056 20.8086 32.92C20.8246 32.912 20.8406 32.896 20.8646 32.896L31.1766 26.52C31.4326 26.36 31.7606 26.36 32.0166 26.52L42.0166 32.688L51.9846 26.52C52.2406 26.36 52.5686 26.36 52.8238 26.52Z" fill="#8CA623"/>
</mask>
<g mask="url(#mask0)">
<path d="M52.8238 26.52L63.0759 32.9335C63.3097 33.0798 63.4516 33.336 63.4516 33.6118V46.0876C63.4516 46.3574 63.3156 46.6091 63.0899 46.7569L52.823 53.48C52.8158 53.4896 52.8078 53.4896 52.7998 53.4896C52.7998 53.4976 52.7918 53.4976 52.7918 53.4976C52.7358 53.5296 52.6798 53.5536 52.6238 53.5696C52.5518 53.5936 52.4798 53.6016 52.4078 53.6016C52.3358 53.6016 52.2638 53.5936 52.1918 53.5696C52.1838 53.5696 52.1838 53.5696 52.1758 53.5616H52.1598C52.1278 53.5536 52.0958 53.5376 52.0718 53.5208C52.0638 53.5128 52.0558 53.5128 52.0478 53.504C52.0318 53.504 52.0238 53.496 52.0078 53.4872H51.9998C51.9918 53.4872 51.9918 53.4872 51.9838 53.4792L41.9998 47.32L32.0166 53.48C32.0086 53.4896 32.0006 53.4896 31.9926 53.4896C31.9926 53.4976 31.9846 53.4976 31.9846 53.4976C31.8646 53.5696 31.7286 53.6016 31.5926 53.6016C31.4566 53.6016 31.3206 53.5696 31.2006 53.4896C31.1926 53.4896 31.1846 53.4896 31.1766 53.48L20.7766 47.064C20.5366 46.92 20.3926 46.664 20.3926 46.384V33.616C20.3926 33.328 20.5526 33.056 20.8086 32.92C20.8246 32.912 20.8406 32.896 20.8646 32.896L31.1766 26.52C31.4326 26.36 31.7606 26.36 32.0166 26.52L42.0166 32.688L51.9846 26.52C52.2406 26.36 52.5686 26.36 52.8238 26.52Z" fill="#8CA623"/>
<path d="M52.7903 40L52.7805 39.9901L42 33.195V31.6L44.4 30.4L52.4 26L63.6 33.195L52.7903 40Z" fill="#A9C92C"/>
<path d="M31.6004 40L20.669 33.3631C20.5439 33.2871 20.54 33.1069 20.6618 33.0257L30.809 26.261C31.0569 26.0957 31.3656 26.0496 31.651 26.1352L39.2004 28.4L42.0004 31.2V33.2L31.6004 40Z" fill="#A9C92C"/>
<path d="M63.6008 46.4095L52.8008 53.6V40L63.6008 32.8V46.4095Z" fill="#9DBA2A"/>
<path d="M41.9996 47.2L31.5996 54.3V39.9905L41.9996 33.2V47.2Z" fill="#9DBA2A"/>
</g>
<defs>
<filter id="filter0_d" x="0" y="0" width="84" height="88" filterUnits="userSpaceOnUse" color-interpolation-filters="sRGB">
<feFlood flood-opacity="0" result="BackgroundImageFix"/>
<feColorMatrix in="SourceAlpha" type="matrix" values="0 0 0 0 0 0 0 0 0 0 0 0 0 0 0 0 0 0 127 0"/>
<feOffset dy="6"/>
<feGaussianBlur stdDeviation="1"/>
<feColorMatrix type="matrix" values="0 0 0 0 0 0 0 0 0 0 0 0 0 0 0 0 0 0 0.05 0"/>
<feBlend mode="normal" in2="BackgroundImageFix" result="effect1_dropShadow"/>
<feBlend mode="normal" in="SourceGraphic" in2="effect1_dropShadow" result="shape"/>
</filter>
</defs>
</svg>
