<svg width="84" height="88" viewBox="0 0 84 88" fill="none" xmlns="http://www.w3.org/2000/svg">
<g filter="url(#filter0_d)">
<circle cx="42" cy="40" r="40" fill="white"/>
</g>
<g clip-path="url(#clip0)">
<path d="M66.798 47.6191V53.2664C66.798 55.1843 61.6836 56.7826 55.3971 56.7826C49.1105 56.7826 44.1027 55.2376 44.1027 53.3197V52.6805L43.9961 48.2053H44.0493C44.9017 49.8568 49.59 51.1355 55.2372 51.1355C60.8843 51.1355 66.6915 49.5373 66.6915 47.6192H66.798V47.6191Z" fill="#BE5419"/>
<path d="M55.0776 26.6284V32.2223H54.971C54.971 34.1936 49.6968 35.7386 43.4635 35.7386C41.0661 35.7918 38.6154 35.5254 36.2712 34.9394L36.1647 35.046C34.9926 34.087 33.6607 33.3412 32.2223 32.8617V32.7552L32.0625 26.8415C32.4354 28.6529 37.3901 30.0913 43.4102 30.0913C49.4304 30.0913 54.971 28.5463 54.971 26.6284H55.0776Z" fill="#E16F30"/>
<path d="M55.0794 26.735C55.0794 28.653 49.8052 30.1979 43.5187 30.1979C37.2321 30.1979 32.4906 28.7595 32.1177 26.9482C32.1177 26.8949 32.0645 26.7884 32.0645 26.735C32.0645 24.8171 37.1789 23.2188 43.5188 23.2188C49.8584 23.1656 55.0794 24.7638 55.0794 26.735Z" fill="#FF9963"/>
<path d="M44.0504 48.2051L43.9972 47.033L43.8906 42.2383C44.2635 44.0496 49.2182 45.488 55.2384 45.488C61.2586 45.488 66.5861 43.943 66.7459 42.0784H66.7992V47.6191H66.6926C66.6926 49.537 61.5248 51.1353 55.2383 51.1353C48.9518 51.1352 44.9029 49.8566 44.0504 48.2051Z" fill="#E16F30"/>
<path d="M36.4336 51.7746C37.872 50.4428 38.9909 48.7379 39.5768 46.8733H39.8432C41.0152 46.9799 42.1873 47.0331 43.466 47.0331H43.9987V48.2052L44.1052 52.6804H43.5192C41.175 52.7336 38.8842 52.4672 36.5934 51.9345L36.4336 51.7746Z" fill="#BE5419"/>
<path d="M44.0507 41.8121V42.0785L44.1573 47.0331H43.6245C42.2926 47.0331 41.0672 46.9799 39.8953 46.8733H39.6289C40.0018 45.7546 40.1616 44.5825 40.1616 43.4104C40.1616 42.6113 40.055 41.8655 39.8953 41.1196H40.1616C41.2804 41.2262 42.3992 41.2794 43.6245 41.2794L44.104 41.5458C44.0507 41.6522 44.0507 41.7588 44.0507 41.8121Z" fill="#E16F30"/>
<path d="M36.2725 34.9395C38.6166 35.5255 41.0672 35.7919 43.4647 35.7386C49.6979 35.7386 54.9722 34.1936 54.9722 32.2224H55.0788V38.5089C49.2718 38.5089 44.5302 39.8941 43.9442 41.6521L43.4647 41.3858C42.2926 41.3858 41.1739 41.3326 40.1084 41.226H39.842C39.3626 38.7753 38.0839 36.591 36.166 34.9927L36.2725 34.9395Z" fill="#BE5419"/>
<path d="M39.9483 41.2261C39.4156 38.7754 38.0837 36.5379 36.1658 34.8863C34.9937 33.8208 33.6085 33.075 32.1168 32.6487C31.0513 32.2758 29.8792 32.116 28.7605 32.116C22.4206 32.0626 17.2529 37.1238 17.1996 43.4636C17.1464 49.8033 22.2075 54.9711 28.5474 55.0243C31.4776 55.0243 34.2479 53.9588 36.4321 51.9876C37.9239 50.6024 39.0426 48.8444 39.6287 46.9263C40.0016 45.8076 40.1614 44.6888 40.1614 43.5167C40.1615 42.7711 39.9483 41.9719 39.9483 41.2261Z" fill="#FF9963"/>
<path d="M66.7459 41.9719V42.0785C66.5861 43.9432 61.4183 45.4882 55.2384 45.4882C49.0584 45.4882 44.2635 44.0497 43.8906 42.2384V41.9721C43.8906 41.8655 43.8906 41.7589 43.9439 41.6524C44.5299 39.8943 49.2714 38.5092 55.0785 38.5092H55.2383C61.5249 38.5091 66.7459 40.054 66.7459 41.9719Z" fill="#FF9963"/>
</g>
<defs>
<filter id="filter0_d" x="0" y="0" width="84" height="88" filterUnits="userSpaceOnUse" color-interpolation-filters="sRGB">
<feFlood flood-opacity="0" result="BackgroundImageFix"/>
<feColorMatrix in="SourceAlpha" type="matrix" values="0 0 0 0 0 0 0 0 0 0 0 0 0 0 0 0 0 0 127 0"/>
<feOffset dy="6"/>
<feGaussianBlur stdDeviation="1"/>
<feColorMatrix type="matrix" values="0 0 0 0 0 0 0 0 0 0 0 0 0 0 0 0 0 0 0.05 0"/>
<feBlend mode="normal" in2="BackgroundImageFix" result="effect1_dropShadow"/>
<feBlend mode="normal" in="SourceGraphic" in2="effect1_dropShadow" result="shape"/>
</filter>
<clipPath id="clip0">
<rect x="17.1992" y="15.2" width="49.6" height="49.6" fill="white"/>
</clipPath>
</defs>
</svg>
