<svg width="84" height="88" viewBox="0 0 84 88" fill="none" xmlns="http://www.w3.org/2000/svg">
<g filter="url(#filter0_d)">
<circle cx="42" cy="40" r="40" fill="white"/>
</g>
<path d="M66 49.4651V23.1002C66 21.9789 65.091 21.0699 63.9697 21.0699H20.0303C18.909 21.0699 18 21.9789 18 23.1002V49.4651H66Z" fill="#DCD2FF"/>
<path d="M18 46.9232H66V49.3232H18V46.9232Z" fill="white"/>
<path d="M18 49.4651V56.9549C18 58.0456 18.8842 58.9299 19.975 58.9299H64.0249C65.1157 58.9299 66 58.0456 66 56.9549V49.4651H18Z" fill="#DCD2FF"/>
<path d="M60.5521 54.8942H23.449C23.049 54.8942 22.7246 54.5699 22.7246 54.1698C22.7246 53.7698 23.0489 53.4454 23.449 53.4454H60.5521C60.9522 53.4454 61.2765 53.7698 61.2765 54.1698C61.2765 54.57 60.9522 54.8942 60.5521 54.8942Z" fill="white"/>
<path d="M37.7288 53.4454H23.449C23.049 53.4454 22.7246 53.7697 22.7246 54.1698C22.7246 54.5699 23.0489 54.8942 23.449 54.8942H37.7288V53.4454Z" fill="#8564E4"/>
<path d="M37.7271 56.4285C38.9592 56.4285 39.958 55.4297 39.958 54.1975C39.958 52.9654 38.9592 51.9666 37.7271 51.9666C36.4949 51.9666 35.4961 52.9654 35.4961 54.1975C35.4961 55.4297 36.4949 56.4285 37.7271 56.4285Z" fill="#8564E4"/>
<path d="M37.7271 54.6864C36.804 54.6864 36.0119 54.1258 35.6726 53.3264C35.559 53.594 35.4961 53.8884 35.4961 54.1974C35.4961 55.4294 36.4949 56.4283 37.7271 56.4283C38.9592 56.4283 39.958 55.4295 39.958 54.1974C39.958 53.8884 39.8951 53.594 39.7815 53.3264C39.4422 54.1258 38.6501 54.6864 37.7271 54.6864Z" fill="#6240C1"/>
<path d="M48.6362 41.0419C52.3115 37.3665 52.3115 31.4076 48.6362 27.7323C44.9609 24.057 39.002 24.057 35.3266 27.7323C31.6513 31.4076 31.6513 37.3665 35.3266 41.0419C39.002 44.7172 44.9609 44.7172 48.6362 41.0419Z" fill="#8564E4"/>
<path d="M41.9869 42.0573C37.0822 42.0573 33.0543 38.3057 32.6147 33.5156C32.5884 33.8025 32.5742 34.0928 32.5742 34.3866C32.5742 39.585 36.7884 43.7992 41.9869 43.7992C47.1853 43.7992 51.3996 39.585 51.3996 34.3866C51.3996 34.0928 51.3854 33.8025 51.3591 33.5156C50.9195 38.3056 46.8916 42.0573 41.9869 42.0573Z" fill="#6240C1"/>
<path d="M40.1891 38.9916L46.1375 35.2242C46.5719 34.9491 46.5719 34.3153 46.1375 34.0402L40.1891 30.2728C39.7225 29.9773 39.1133 30.3126 39.1133 30.8649V38.3996C39.1133 38.9518 39.7225 39.2871 40.1891 38.9916Z" fill="white"/>
<path d="M46.1376 34.04L45.6972 33.7611L40.1891 37.2495C39.7225 37.545 39.1133 37.2098 39.1133 36.6575V38.3995C39.1133 38.9518 39.7225 39.287 40.1891 38.9915L46.1375 35.2242C46.572 34.949 46.572 34.3152 46.1376 34.04Z" fill="#D8D1D7"/>
<defs>
<filter id="filter0_d" x="0" y="0" width="84" height="88" filterUnits="userSpaceOnUse" color-interpolation-filters="sRGB">
<feFlood flood-opacity="0" result="BackgroundImageFix"/>
<feColorMatrix in="SourceAlpha" type="matrix" values="0 0 0 0 0 0 0 0 0 0 0 0 0 0 0 0 0 0 127 0"/>
<feOffset dy="6"/>
<feGaussianBlur stdDeviation="1"/>
<feColorMatrix type="matrix" values="0 0 0 0 0 0 0 0 0 0 0 0 0 0 0 0 0 0 0.05 0"/>
<feBlend mode="normal" in2="BackgroundImageFix" result="effect1_dropShadow"/>
<feBlend mode="normal" in="SourceGraphic" in2="effect1_dropShadow" result="shape"/>
</filter>
</defs>
</svg>
