<svg width="84" height="88" viewBox="0 0 84 88" fill="none" xmlns="http://www.w3.org/2000/svg">
<g filter="url(#filter0_d)">
<circle cx="42" cy="40" r="40" fill="white"/>
</g>
<path d="M42.2742 15.2C35.2598 21.0932 30.863 21.3688 23.5469 21.3688V45.0878C23.5469 54.5529 30.2117 57.0224 42.2742 64.5504C54.3366 57.0224 61.0015 54.5529 61.0015 45.0878V21.3688C53.6853 21.3688 49.2886 21.0932 42.2742 15.2Z" fill="#6CC9E7"/>
<path d="M42.2741 15.2C42.2741 31.6 42.2728 30.4 42.2739 40.7999C42.2751 51.1999 42.2747 64.5504 42.2747 64.5504C54.3372 57.0224 61.0014 54.5529 61.0014 45.0878V21.3688C53.6852 21.3688 49.2885 21.0932 42.2741 15.2Z" fill="#7AD2EE"/>
<path opacity="0.7" d="M49.7673 24.8659C51.9992 25.4954 54.2358 25.622 56.7508 25.6452V44.394C56.7508 46.2378 56.4314 47.6733 55.8487 48.8916C55.2641 50.1135 54.3797 51.1899 53.1462 52.2681C51.9026 53.355 50.337 54.4163 48.4134 55.6223C47.6171 56.1215 46.7174 56.6708 45.7537 57.2592C44.6958 57.9052 43.5607 58.5982 42.4008 59.3236C41.2409 58.5982 40.1058 57.9052 39.0478 57.2592C38.0841 56.6708 37.1844 56.1215 36.3882 55.6223C34.4646 54.4163 32.8989 53.355 31.6554 52.2681C30.4219 51.1899 29.5374 50.1135 28.9529 48.8916C28.3701 47.6733 28.0508 46.2378 28.0508 44.394V25.6452C30.5658 25.622 32.8024 25.4954 35.0343 24.8659C37.4221 24.1925 39.7327 22.9676 42.4008 20.8222C45.0689 22.9676 47.3795 24.1925 49.7673 24.8659Z" stroke="#49A9C7" stroke-width="2.5"/>
<path d="M34.9883 40.0713L40.0463 44.8106L49.7025 35.7629" stroke="white" stroke-width="2.5" stroke-linecap="round" stroke-linejoin="round"/>
<defs>
<filter id="filter0_d" x="0" y="0" width="84" height="88" filterUnits="userSpaceOnUse" color-interpolation-filters="sRGB">
<feFlood flood-opacity="0" result="BackgroundImageFix"/>
<feColorMatrix in="SourceAlpha" type="matrix" values="0 0 0 0 0 0 0 0 0 0 0 0 0 0 0 0 0 0 127 0"/>
<feOffset dy="6"/>
<feGaussianBlur stdDeviation="1"/>
<feColorMatrix type="matrix" values="0 0 0 0 0 0 0 0 0 0 0 0 0 0 0 0 0 0 0.05 0"/>
<feBlend mode="normal" in2="BackgroundImageFix" result="effect1_dropShadow"/>
<feBlend mode="normal" in="SourceGraphic" in2="effect1_dropShadow" result="shape"/>
</filter>
</defs>
</svg>
