<svg width="84" height="88" viewBox="0 0 84 88" fill="none" xmlns="http://www.w3.org/2000/svg">
<g filter="url(#filter0_d)">
<circle cx="42" cy="40" r="40" fill="white"/>
</g>
<g clip-path="url(#clip0)">
<path d="M46.4686 61.6H37.6557C37.2569 61.6 36.9336 61.2767 36.9336 60.8779V59.2484C36.9336 58.3628 37.6514 57.6453 38.5367 57.6453H45.3909C46.3849 57.6453 47.1904 58.4508 47.1904 59.4445V60.8779C47.1904 61.2767 46.8674 61.6 46.4686 61.6Z" fill="#2571CB"/>
<path d="M45.5392 57.6453H43.1055C44.0174 57.6453 44.757 58.3845 44.757 59.2965V61.6H46.4686C46.8674 61.6 47.1907 61.2767 47.1907 60.8779V59.2965C47.1907 58.3845 46.4515 57.6453 45.5392 57.6453Z" fill="#2061AD"/>
<path d="M40.0039 48.5474H44.1182V57.6454H40.0039V48.5474Z" fill="#2882EB"/>
<path d="M42.3066 48.5474H44.1191V57.6454H42.3066V48.5474Z" fill="#2571CB"/>
<path d="M40.0039 32.8884H44.1182V37.0551H40.0039V32.8884Z" fill="#2882EB"/>
<path d="M42.3066 32.8884H44.1191V37.0551H42.3066V32.8884Z" fill="#2571CB"/>
<path d="M44.1182 21.4042H40.0039V20.2672C40.0039 19.2359 40.8397 18.4 41.871 18.4H42.251C43.2823 18.4 44.1182 19.2359 44.1182 20.2672V21.4042Z" fill="#2882EB"/>
<path d="M42.3066 18.401V21.4042H44.1191V20.2671C44.1191 19.2543 43.3125 18.4297 42.3066 18.401Z" fill="#2571CB"/>
<path d="M54.2614 32.8884H26.4612C25.2572 32.8884 24.2812 32.07 24.2812 31.0608V23.2318C24.2812 22.2225 25.2572 21.4042 26.4612 21.4042H54.2611C54.9582 21.4042 55.6131 21.6837 56.0231 22.156L59.4238 26.0705C59.9808 26.7116 59.9808 27.581 59.4238 28.2224L56.0231 32.1369C55.6131 32.6089 54.9582 32.8884 54.2614 32.8884Z" fill="#5CA6FD"/>
<path d="M59.4237 26.0702L56.023 22.1556C55.613 21.6833 54.9581 21.4042 54.261 21.4042H50.4414C51.1382 21.4042 51.7931 21.6833 52.2031 22.1556L55.6038 26.0702C56.1608 26.7116 56.1608 27.581 55.6038 28.2224L52.2034 32.1369C51.7931 32.6089 51.1382 32.8884 50.4414 32.8884H54.2614C54.9581 32.8884 55.613 32.6089 56.023 32.1369L59.4237 28.2221C59.9807 27.581 59.9807 26.7116 59.4237 26.0702Z" fill="#2571CB"/>
<path d="M29.8614 48.5472H57.6616C58.8656 48.5472 59.8412 47.7288 59.8412 46.7196V38.8906C59.8412 37.8814 58.8656 37.063 57.6616 37.063H29.8614C29.1646 37.063 28.5097 37.3425 28.0994 37.8148L24.699 41.7293C24.142 42.3704 24.142 43.2398 24.699 43.8812L28.0994 47.7958C28.5097 48.2677 29.1646 48.5472 29.8614 48.5472Z" fill="#5CA6FD"/>
<path d="M57.6623 37.063H54.5332C55.7369 37.063 56.7128 37.8814 56.7128 38.8906V46.7196C56.7128 47.7292 55.7369 48.5472 54.5332 48.5472H57.6623C58.8663 48.5472 59.8419 47.7292 59.8419 46.7196V38.8906C59.8419 37.8814 58.8663 37.063 57.6623 37.063Z" fill="#2571CB"/>
</g>
<defs>
<filter id="filter0_d" x="0" y="0" width="84" height="88" filterUnits="userSpaceOnUse" color-interpolation-filters="sRGB">
<feFlood flood-opacity="0" result="BackgroundImageFix"/>
<feColorMatrix in="SourceAlpha" type="matrix" values="0 0 0 0 0 0 0 0 0 0 0 0 0 0 0 0 0 0 127 0"/>
<feOffset dy="6"/>
<feGaussianBlur stdDeviation="1"/>
<feColorMatrix type="matrix" values="0 0 0 0 0 0 0 0 0 0 0 0 0 0 0 0 0 0 0.05 0"/>
<feBlend mode="normal" in2="BackgroundImageFix" result="effect1_dropShadow"/>
<feBlend mode="normal" in="SourceGraphic" in2="effect1_dropShadow" result="shape"/>
</filter>
<clipPath id="clip0">
<rect x="20.4004" y="18.4" width="43.2" height="43.2" fill="white"/>
</clipPath>
</defs>
</svg>
