<svg width="84" height="88" viewBox="0 0 84 88" fill="none" xmlns="http://www.w3.org/2000/svg">
<g filter="url(#filter0_d)">
<circle cx="42" cy="40" r="40" fill="white"/>
</g>
<g clip-path="url(#clip0)">
<path d="M58.3635 25.7541H34.6455V22.024C34.6455 21.2474 34.0159 20.6178 33.2393 20.6178H25.6348C24.8581 20.6178 24.2285 21.2474 24.2285 22.024V57.5137C24.2285 61.0902 27.1417 63.9999 30.7225 63.9999H55.6046C57.9012 63.9999 59.7697 62.1333 59.7697 59.8389V27.1603C59.7697 26.3837 59.1401 25.7541 58.3635 25.7541Z" fill="#4EBA93"/>
<path d="M37.4973 39.0903L35.6019 37.9951C35.3486 37.8488 35.0506 37.8488 34.7973 37.9951L32.9019 39.0903C32.6231 39.2513 32.2921 39.2342 32.0269 39.0451C31.7617 38.8559 31.6001 38.5216 31.5996 38.1615V28.8H38.7996V38.1615C38.7991 38.5216 38.6375 38.8559 38.3723 39.0451C38.1071 39.2342 37.7761 39.2513 37.4973 39.0903Z" fill="white"/>
<path d="M58.3643 25.7542H42V64H55.6055C57.9021 64 59.7706 62.1334 59.7706 59.839V27.1604C59.7706 26.3838 59.141 25.7542 58.3643 25.7542Z" fill="#48AB87"/>
<path d="M58.3545 27.1578H30.3227C27.7563 27.1578 25.6758 25.0805 25.6758 22.518V22.046C25.6758 19.4836 27.7563 17.4062 30.3227 17.4062H58.3545V27.1578Z" fill="white"/>
<path d="M42 17.4062H58.3551V27.1578H42V17.4062Z" fill="white"/>
<path d="M58.3389 28.5641H30.307C26.9693 28.5641 24.2539 25.8518 24.2539 22.518V22.046C24.2538 18.7123 26.9693 16 30.307 16H58.3389C59.1155 16 59.7451 16.6296 59.7451 17.4062C59.7451 18.1829 59.1155 18.8125 58.3389 18.8125H30.307C28.5201 18.8125 27.0664 20.2631 27.0664 22.046V22.518C27.0664 24.301 28.5202 25.7516 30.307 25.7516H58.3389C59.1155 25.7516 59.7451 26.3812 59.7451 27.1578C59.7451 27.9345 59.1155 28.5641 58.3389 28.5641Z" fill="#67C5A3"/>
<path d="M58.3394 18.8125C59.116 18.8125 59.7457 18.1829 59.7457 17.4062C59.7457 16.6296 59.116 16 58.3394 16H42V18.8125H58.3394Z" fill="#63BF9E"/>
<path d="M58.3394 25.7516H42V28.5641H58.3394C59.116 28.5641 59.7457 27.9345 59.7457 27.1578C59.7457 26.3812 59.116 25.7516 58.3394 25.7516Z" fill="#63BF9E"/>
</g>
<defs>
<filter id="filter0_d" x="0" y="0" width="84" height="88" filterUnits="userSpaceOnUse" color-interpolation-filters="sRGB">
<feFlood flood-opacity="0" result="BackgroundImageFix"/>
<feColorMatrix in="SourceAlpha" type="matrix" values="0 0 0 0 0 0 0 0 0 0 0 0 0 0 0 0 0 0 127 0"/>
<feOffset dy="6"/>
<feGaussianBlur stdDeviation="1"/>
<feColorMatrix type="matrix" values="0 0 0 0 0 0 0 0 0 0 0 0 0 0 0 0 0 0 0.05 0"/>
<feBlend mode="normal" in2="BackgroundImageFix" result="effect1_dropShadow"/>
<feBlend mode="normal" in="SourceGraphic" in2="effect1_dropShadow" result="shape"/>
</filter>
<clipPath id="clip0">
<rect x="18" y="16" width="48" height="48" fill="white"/>
</clipPath>
</defs>
</svg>
