<svg width="84" height="88" viewBox="0 0 84 88" fill="none" xmlns="http://www.w3.org/2000/svg">
<g filter="url(#filter0_d)">
<circle cx="42" cy="40" r="40" fill="white"/>
</g>
<path d="M66.7992 40C66.7992 53.7019 55.695 64.7999 41.9992 64.7999C34.3298 64.7999 27.4726 61.3218 22.928 55.8534C19.3506 51.5568 17.1992 46.0325 17.1992 40C17.1992 26.3041 28.3034 15.2 41.9992 15.2C47.9264 15.2 53.37 17.2831 57.6356 20.7613C63.228 25.2997 66.7992 32.2313 66.7992 40Z" fill="#F4C85B"/>
<path d="M45.0429 58.8109C55.4288 57.1273 62.4834 47.343 60.7998 36.9571C59.1161 26.5712 49.3318 19.5167 38.946 21.2003C28.5601 22.8839 21.5055 32.6682 23.1891 43.0541C24.8727 53.44 34.657 60.4946 45.0429 58.8109Z" fill="#EFB250"/>
<path d="M51.3866 41.2165C51.0048 40.7117 50.5194 40.291 49.9434 39.9545C49.5098 39.6956 49.0244 39.4885 48.4873 39.3332C49.4645 38.8542 50.1894 38.22 50.6748 37.4369C51.1537 36.6539 51.3931 35.819 51.3931 34.9259C51.3931 33.9745 51.1213 33.062 50.5777 32.1883C50.034 31.3146 49.2833 30.6674 48.3255 30.2467C47.6006 29.9232 46.6946 29.729 45.6073 29.6513V27.0626H42.8762V29.6125H41.4977V27.0626H38.7731V29.6125H37.6146V29.606H34.5664V32.0524H36.7151V47.9342H34.5664V50.3805H36.7151V50.387H38.7731V52.9434H41.4977V50.387H42.8762V52.9434H45.6073V50.3676C46.5133 50.3223 47.3094 50.2123 47.9889 50.0376C48.895 49.811 49.6587 49.468 50.2605 49.015C50.8624 48.562 51.3737 47.9148 51.7814 47.0799C52.1956 46.2451 52.4027 45.339 52.4027 44.3682C52.4027 43.158 52.0597 42.1096 51.3866 41.2165ZM39.4656 32.0653H43.614C45.109 32.0653 46.1639 32.1624 46.7722 32.3566C47.3871 32.5507 47.8595 32.9066 48.1896 33.4309C48.5196 33.9551 48.6879 34.5634 48.6879 35.2559C48.6879 35.9808 48.5131 36.5826 48.1572 37.068C47.8013 37.547 47.2771 37.8964 46.5781 38.1035C46.0474 38.2653 45.1737 38.343 43.957 38.343H39.4656V32.0653ZM49.1409 46.1156C48.8691 46.6204 48.5196 47.0087 48.0925 47.2676C47.6653 47.533 47.1411 47.7206 46.5069 47.8371C46.1445 47.9019 45.5232 47.9342 44.6365 47.9342H39.4656V40.7958H44.2676C45.5879 40.7958 46.604 40.9123 47.3094 41.1388C47.73 41.2812 48.0925 41.4818 48.4096 41.7407C48.6167 41.9154 48.7979 42.1161 48.9597 42.349C49.3545 42.9186 49.5551 43.5916 49.5551 44.3682C49.5551 45.0284 49.4127 45.6108 49.1409 46.1156Z" fill="#CC903A"/>
<path d="M50.7792 41.2165C50.3974 40.7117 49.912 40.291 49.336 39.9545C48.9024 39.6956 48.417 39.4885 47.8799 39.3332C48.8571 38.8542 49.5819 38.22 50.0673 37.4369C50.5462 36.6539 50.7857 35.819 50.7857 34.9259C50.7857 33.9745 50.5138 33.062 49.9702 32.1883C49.4266 31.3146 48.6759 30.6674 47.7181 30.2467C46.9932 29.9232 46.0872 29.729 44.9999 29.6513V27.0626H42.2688V29.6125H40.8903V27.0626H38.1657V29.6125H37.0072V29.606H33.959V32.0524H36.1076V47.9342H33.959V50.3805H36.1076V50.387H38.1657V52.9434H40.8903V50.387H42.2688V52.9434H44.9999V50.3676C45.9059 50.3223 46.702 50.2123 47.3815 50.0376C48.2876 49.811 49.0513 49.468 49.6531 49.015C50.255 48.562 50.7663 47.9148 51.174 47.0799C51.5882 46.2451 51.7953 45.339 51.7953 44.3682C51.7953 43.158 51.4523 42.1096 50.7792 41.2165ZM38.8582 32.0653H43.0066C44.5016 32.0653 45.5565 32.1624 46.1648 32.3566C46.7796 32.5507 47.2521 32.9066 47.5821 33.4309C47.9122 33.9551 48.0805 34.5634 48.0805 35.2559C48.0805 35.9808 47.9057 36.5826 47.5498 37.068C47.1938 37.547 46.6696 37.8964 45.9707 38.1035C45.44 38.2653 44.5663 38.343 43.3496 38.343H38.8582V32.0653ZM48.5335 46.1156C48.2617 46.6204 47.9122 47.0087 47.485 47.2676C47.0579 47.533 46.5337 47.7206 45.8995 47.8371C45.5371 47.9019 44.9158 47.9342 44.0291 47.9342H38.8582V40.7958H43.6602C44.9805 40.7958 45.9965 40.9123 46.702 41.1388C47.1226 41.2812 47.485 41.4818 47.8022 41.7407C48.0093 41.9154 48.1905 42.1161 48.3523 42.349C48.7471 42.9186 48.9477 43.5916 48.9477 44.3682C48.9477 45.0284 48.8053 45.6108 48.5335 46.1156Z" fill="#FFE18B"/>
<defs>
<filter id="filter0_d" x="0" y="0" width="84" height="88" filterUnits="userSpaceOnUse" color-interpolation-filters="sRGB">
<feFlood flood-opacity="0" result="BackgroundImageFix"/>
<feColorMatrix in="SourceAlpha" type="matrix" values="0 0 0 0 0 0 0 0 0 0 0 0 0 0 0 0 0 0 127 0"/>
<feOffset dy="6"/>
<feGaussianBlur stdDeviation="1"/>
<feColorMatrix type="matrix" values="0 0 0 0 0 0 0 0 0 0 0 0 0 0 0 0 0 0 0.05 0"/>
<feBlend mode="normal" in2="BackgroundImageFix" result="effect1_dropShadow"/>
<feBlend mode="normal" in="SourceGraphic" in2="effect1_dropShadow" result="shape"/>
</filter>
</defs>
</svg>
