<svg width="652" height="427" viewBox="0 0 652 427" fill="none" xmlns="http://www.w3.org/2000/svg">
<path d="M178.209 417.458H210.949" stroke="#272E45" stroke-width="2" stroke-miterlimit="10" stroke-linecap="round" stroke-linejoin="round"/>
<path d="M81.7402 421.401H231.809" stroke="#272E45" stroke-width="2" stroke-miterlimit="10" stroke-linecap="round" stroke-linejoin="round"/>
<path d="M77.4707 425.069H252.67" stroke="#272E45" stroke-width="2" stroke-miterlimit="10" stroke-linecap="round" stroke-linejoin="round"/>
<path d="M281.742 421.401H454.477" stroke="#272E45" stroke-width="2" stroke-miterlimit="10" stroke-linecap="round" stroke-linejoin="round"/>
<path d="M276.814 425.069H478.512" stroke="#272E45" stroke-width="2" stroke-miterlimit="10" stroke-linecap="round" stroke-linejoin="round"/>
<path d="M559.322 417.458H592.063" stroke="#272E45" stroke-width="2" stroke-miterlimit="10" stroke-linecap="round" stroke-linejoin="round"/>
<path d="M535.781 421.401H607.23" stroke="#272E45" stroke-width="2" stroke-miterlimit="10" stroke-linecap="round" stroke-linejoin="round"/>
<path d="M503.75 425.069H626.006" stroke="#272E45" stroke-width="2" stroke-miterlimit="10" stroke-linecap="round" stroke-linejoin="round"/>
<path d="M101.617 415.049C101.617 414.885 101.398 412.147 101.398 411.983C99.7006 412.257 96.3061 412.366 95.5944 412.311C94.3899 415.816 94.3351 416.528 93.3496 418.992C91.8166 422.77 93.6781 425.015 93.6781 425.015C93.6781 425.015 109.008 425.015 115.359 425.015C115.961 425.015 116.509 425.015 116.509 425.015C116.509 425.015 116.18 421.346 111.253 420.032C106.271 418.773 101.726 417.732 101.617 415.049Z" fill="#F3944F"/>
<path d="M103.752 419.758C104.518 418.663 105.613 417.896 106.873 417.568" stroke="#1B1733" stroke-miterlimit="10" stroke-linecap="round" stroke-linejoin="round"/>
<path d="M106.16 420.744C106.872 419.703 107.912 418.937 109.062 418.608" stroke="#1B1733" stroke-miterlimit="10" stroke-linecap="round" stroke-linejoin="round"/>
<path d="M177.282 414.337C177.228 414.173 176.571 411.49 176.516 411.38C174.873 411.928 170.22 412.859 169.508 412.968C170.274 416.911 170.329 417.075 169.782 419.703C168.906 423.7 170.548 425.069 170.548 425.069C170.548 425.069 185.878 425.069 192.229 425.069C192.831 425.069 193.379 425.069 193.379 425.069C193.379 425.069 193.05 421.401 188.123 420.086C183.195 418.772 177.83 416.965 177.282 414.337Z" fill="#F3944F"/>
<path d="M129.32 304.718C129.32 304.718 131.839 316.162 135.781 326.839C144.322 349.891 153.684 356.571 155.874 364.784C156.586 367.412 155.764 378.692 156.75 381.649C156.75 381.649 159.761 384.879 161.951 391.559C164.962 400.703 169.835 417.513 169.835 417.513C169.835 417.513 172.846 417.677 174.927 416.692C177.938 415.323 177.61 414.666 177.61 414.666C177.61 414.666 173.065 369.657 172.573 364.018C172.135 358.98 169.561 338.173 159.323 303.075C156.969 294.972 126.254 284.075 129.32 304.718Z" fill="#454280"/>
<path d="M157.242 378.911C157.461 375.078 158.009 373.216 161.787 368.453C165.564 363.689 165.729 360.513 161.513 362.868C157.352 365.222 159.925 361.992 162.882 357.447C165.838 352.957 161.075 354.6 158.721 357.666C156.366 360.842 155.6 357.502 153.3 352.026C151.001 346.551 146.676 336.093 148.263 328.208C149.851 320.323 150.234 317.476 155.6 313.588C155.6 313.588 157.68 311.015 160.637 307.675C160.199 306.142 159.761 304.609 159.323 303.021C156.914 294.862 126.199 283.966 129.32 304.609C129.32 304.609 131.839 316.052 135.781 326.729C144.321 349.781 153.684 356.461 155.874 364.675C156.585 367.303 155.764 378.582 156.75 381.539C156.75 381.539 157.407 382.251 158.283 383.62C157.516 381.977 157.188 380.334 157.242 378.911Z" fill="#3B3A70"/>
<path d="M178.869 419.977C179.69 418.608 181.004 417.568 182.537 417.075" stroke="#1B1733" stroke-miterlimit="10" stroke-linecap="round" stroke-linejoin="round"/>
<path d="M181.77 420.251C182.591 419.101 183.795 418.28 185.164 417.842" stroke="#1B1733" stroke-miterlimit="10" stroke-linecap="round" stroke-linejoin="round"/>
<path d="M202.082 249.087C203.834 246.787 207.667 244.98 210.623 243.666C211.444 243.283 213.032 243.173 214.182 243.338C215.66 243.612 217.248 243.447 218.726 243.119C218.945 243.064 219.219 243.009 219.328 243.173C219.821 243.831 219.054 244.542 218.781 244.816C218.124 245.418 217.029 245.637 214.893 245.966C217.357 247.609 218.835 246.623 223.051 245.309C224.913 244.707 227.595 244.761 227.157 245.802C226.665 247.116 225.405 248.978 224.584 249.854C222.942 251.661 218.178 253.632 216.974 253.413C214.565 252.975 211.827 252.372 209.473 251.661C207.666 251.113 205.093 252.756 204.874 251.934L202.082 249.087Z" fill="#FBBE3F"/>
<path d="M148.647 233.208C164.524 236.384 172.408 256.972 185.767 265.13C189.654 267.485 192.392 264.583 192.775 264.747C196.388 266.444 190.585 275.369 181.716 278.764C180.949 279.038 179.416 277.45 178.595 277.231C175.365 276.519 176.46 276.629 171.806 275.315C135.507 264.747 134.302 230.361 148.647 233.208Z" fill="#378ECD"/>
<path d="M125.597 244.926C123.845 242.079 124.557 234.084 121.326 234.741C117.987 235.398 112.786 235.398 102.876 230.361C88.4219 222.969 84.699 222.148 82.947 220.888C79.224 218.26 78.2385 214.208 77.9648 213.934C75.1178 211.087 65.7008 220.615 70.8473 230.087C71.2305 230.799 73.53 231.073 74.0228 231.839C75.7748 234.632 75.3368 233.646 78.129 237.534C100.412 268.032 133.152 257.465 125.597 244.926Z" fill="#378ECD"/>
<path d="M175.09 271.482C176.952 272.248 180.893 278.6 181.167 278.764C182.043 279.093 186.533 277.724 188.996 276.246C193.431 273.563 206.078 254.563 207.064 252.81C208.049 251.058 201.425 248.375 201.425 248.375C201.425 248.375 200.658 251.442 195.95 254.125C191.679 256.589 180.455 261.571 180.455 261.571C180.455 261.571 172.243 270.387 175.09 271.482Z" fill="#378ECD"/>
<path d="M120.123 298.914C120.123 298.914 114.703 310.194 115.031 321.583C115.743 345.675 118.097 358.433 116.071 362.922C114.976 365.386 106.381 373.271 105.45 376.502C105.45 376.556 105.505 381.703 103.37 389.205C100.687 398.458 94.4453 414.337 94.4453 414.337C94.4453 414.337 95.1023 416.254 98.661 416.856C101.946 417.404 102.603 416.911 102.603 416.911C102.603 416.911 131.401 368.562 131.785 367.577C133.318 363.196 142.406 339.323 145.308 310.796C146.184 302.309 126.419 279.038 120.123 298.914Z" fill="#56529F"/>
<path d="M166.713 267.54C167.698 264.364 166.329 261.626 165.125 263.597C163.921 265.568 161.128 265.24 161.457 259.162C161.676 254.891 160.198 254.179 159.705 254.07C159.048 253.96 158.008 254.508 158.446 258.779C158.774 261.9 158.5 266.499 158.227 269.456C160.636 270.934 163.318 272.303 166.275 273.453C164.249 271.646 165.837 270.387 166.713 267.54Z" fill="#116DB1"/>
<path d="M130.635 233.044C124.229 233.756 110.158 237.26 104.519 239.669C97.4017 242.681 113.005 276.848 113.772 294.479C114.374 308.277 112.677 321.145 115.195 321.637C129.102 324.43 129.759 315.888 141.53 316.49C153.411 317.093 162.718 312.055 163.704 310.248C165.018 307.784 159.652 305.485 155.984 292.508C154.013 285.499 159.926 273.508 159.269 257.246C158.995 251.113 158.338 241.531 154.396 236.658C153.63 235.782 152.261 230.69 130.635 233.044Z" fill="#378ECD"/>
<path d="M123.898 226.528C123.898 226.528 124.336 229.978 125.65 235.015C126.526 238.355 132.877 241.914 133.863 241.312C135.286 240.491 136.491 235.234 136.217 232.989C135.341 226.364 135.341 228.335 133.753 223.626C132.166 218.972 122.694 220.396 123.898 226.528Z" fill="#FBBE3F"/>
<path d="M133.096 231.128C134.137 230.689 134.958 230.142 135.724 229.485C135.286 226.966 134.958 227.24 133.753 223.681C132.166 218.972 122.694 220.45 123.898 226.583V226.638C126.307 229.54 129.538 232.661 133.096 231.128Z" fill="#F3944F"/>
<path d="M127.897 198.329C136.766 196.632 138.737 202.436 140.489 211.525C141.968 219.136 140.489 225.378 137.807 226.638C133.208 228.773 123.9 228.171 119.849 222.038C111.527 209.225 117.111 200.355 127.897 198.329Z" fill="#FBBE3F"/>
<path d="M122.149 219.465C120.561 218.479 118.973 218.588 118.207 215.741C117.714 213.934 120.013 211.799 121.163 212.511C122.422 213.332 123.189 216.344 124.229 213.277C124.831 210.594 126.912 208.349 129.485 207.583C131.292 207.035 133.208 207.145 135.069 207.09C145.089 206.652 145.965 200.903 146.786 196.796C147.607 192.525 146.512 190.28 144.596 189.349C141.037 187.652 134.193 192.525 132.879 193.182C130.58 194.332 122.368 190.992 115.962 199.205C115.36 199.972 115.031 202.436 115.524 203.312C112.513 204.845 108.68 207.857 110.761 213.058C114.21 221.71 122.203 226.637 122.422 224.885C123.025 220.833 122.149 219.465 122.149 219.465Z" fill="#263B6D"/>
<path d="M82.837 191.156C85.0817 187.324 82.4537 183.874 79.7162 181.793C79.0045 181.246 78.238 180.753 77.7453 179.986C77.3073 179.329 77.143 178.508 77.0335 177.687C76.486 173.58 76.3765 171.171 77.6905 167.229C79.4972 167.886 79.8805 170.404 80.1542 172.321C80.4827 174.237 81.0302 174.949 82.18 176.537C83.3845 178.234 86.4504 178.125 87.9834 179.548C89.8997 181.355 89.8449 184.038 89.7354 186.666C89.6807 187.981 88.9142 190.883 87.1622 193.675C86.5052 194.825 82.837 191.156 82.837 191.156Z" fill="#FBBE3F"/>
<path d="M75.4463 232.277C74.0775 230.799 70.9568 230.032 70.7378 229.813C70.0808 229.156 67.1791 218.479 67.6171 215.632C68.4383 210.485 82.071 190.335 83.385 188.747C84.699 187.159 89.5717 192.361 89.5717 192.361C89.5717 192.361 86.3414 195.592 85.5749 200.958C84.918 205.831 85.0822 218.096 85.0822 218.096C85.0822 218.096 77.5268 234.468 75.4463 232.277Z" fill="#378ECD"/>
<path d="M89.7357 183.819C89.7905 182.779 89.243 181.191 88.9692 180.205C88.5312 178.563 88.0385 177.03 87.9837 174.456C87.9837 174.237 87.8742 173.909 87.6005 173.854C86.7245 173.69 86.2317 174.511 86.1222 174.894C85.9032 175.88 85.6842 178.07 85.1367 180.753C82.1803 183.874 89.243 191.978 89.7357 183.819Z" fill="#FBBE3F"/>
<path d="M529.158 411.983C529.158 411.819 529.377 409.081 529.377 408.917C531.074 409.19 533.866 407.548 535.18 409.026C534.742 412.311 534.797 416.528 535.837 418.991C537.37 422.77 535.509 425.015 535.509 425.015C535.509 425.015 534.14 425.015 531.84 425.015C531.621 425.015 532.279 423.481 531.457 423.481C530.855 423.481 523.847 425.015 523.245 425.015C518.974 425.015 518.263 425.015 515.142 425.015C514.54 425.015 513.992 425.015 513.992 425.015C513.992 425.015 514.321 421.346 519.248 420.032C524.285 418.718 529.048 414.666 529.158 411.983Z" fill="#FBBE3F"/>
<path d="M559.979 419.43C559.87 418.554 559.377 417.458 558.884 415.433C558.556 414.064 558.337 410.943 559.541 405.631C560.691 400.484 553.464 399.827 553.574 403.77C553.738 412.092 552.752 413.735 552.752 413.735C552.752 413.735 551.165 417.294 547.606 420.415C544.485 423.153 542.076 422.605 542.076 426.274C542.076 426.548 542.733 426.603 547.551 426.603C550.343 426.603 553.409 426.876 554.669 425.015C554.942 424.577 555.49 424.248 555.873 423.865C555.928 424.303 555.709 424.796 555.818 424.796C557.844 424.796 559.158 424.796 559.158 424.796C559.158 424.796 560.417 423.153 559.979 419.43Z" fill="#FBBE3F"/>
<path d="M498.332 236.658C497.511 235.398 488.258 225.816 487.218 224.995C485.247 223.571 483.112 222.75 481.798 221.929C481.195 221.545 479.936 221.491 479.17 221.381C477.965 221.162 476.815 221.436 475.611 221.217C475.447 221.162 475.228 221.162 475.118 221.272C474.735 221.819 475.173 222.367 475.392 222.531C475.939 222.969 476.87 222.86 478.458 224.009C476.596 225.488 475.392 223.955 471.778 224.009C468.493 224.064 467.672 224.502 467.398 225.323C468.877 226.364 471.012 228.226 471.724 228.883C473.202 230.251 475.392 230.525 477.363 230.197C479.334 229.868 481.195 228.992 483.166 228.664C485.521 228.28 490.777 240.272 491.488 241.531L498.332 236.658Z" fill="#FBBE3F"/>
<path d="M527.295 409.464C527.295 409.464 528.609 410.176 530.361 410.231C534.358 410.45 536.11 409.355 536.11 409.355C536.22 408.643 536.384 407.931 536.384 407.11C536.603 395.502 539.067 379.459 539.067 378.966C539.067 374.476 534.851 361.992 534.851 361.992C534.851 361.992 548.648 333.957 552.261 311.727C555.875 289.496 542.023 293.001 537.424 294.369C524.284 298.421 524.941 320.707 523.682 332.643C521.93 349.124 521.711 359.144 521.711 359.144C521.711 359.144 524.284 375.242 525.762 389.041C526.967 398.951 527.241 405.303 527.295 409.464Z" fill="#237CBE"/>
<path d="M537.532 294.424C531.838 296.176 528.772 301.323 526.965 307.62C528.169 308.058 529.319 308.66 530.25 309.591C533.754 312.986 537.915 314.245 540.16 321.364C542.404 328.482 537.915 341.185 536.218 348.084C534.52 354.983 533.973 356.516 531.892 355.914C529.812 355.366 527.02 354.819 527.02 356.297C527.02 357.776 529.429 357.776 529.429 359.637C529.429 361.499 527.02 360.568 527.567 362.649C528.115 364.729 533.425 365.113 535.615 368.453C537.367 371.136 538.243 374.64 538.955 377.706C538.353 372.505 534.849 362.046 534.849 362.046C534.849 362.046 548.646 334.012 552.259 311.781C555.873 289.551 542.076 293 537.532 294.424Z" fill="#116DB1"/>
<path d="M551.33 362.375C551.878 366.317 552.371 373.326 552.261 377.706C552.152 382.908 552.207 394.626 551.659 409.19C551.659 409.19 553.301 410.012 554.615 410.176C558.065 410.669 559.762 409.464 559.762 409.464C560.036 407.274 560.419 404.481 560.966 401.306C562.773 390.738 566.551 382.963 566.332 378.528C566.168 374.476 564.635 362.539 564.635 362.539C564.635 362.539 573.066 323.061 571.807 310.139C571.259 304.828 558.065 290.701 553.685 292.617C541.092 298.093 544.596 317.147 546.184 329.084C548.538 347.263 550.235 354.052 551.33 362.375Z" fill="#237CBE"/>
<path d="M571.257 196.413C572.954 198.548 576.732 198.22 578.648 199.479C581.605 201.505 581.933 202.6 581.331 205.228C580.674 207.966 578.867 209.937 582.097 211.744C585.328 213.551 585.163 217.439 582.919 220.067C579.688 223.845 577.936 221.436 577.936 225.871C577.936 228.883 576.403 232.715 573.173 232.77C569.943 232.825 564.468 235.672 561.347 238.684C558.226 241.695 542.787 240.655 539.119 238.246C535.396 235.836 535.177 230.087 530.085 229.594C524.993 229.102 523.022 228.664 521.216 224.995C519.409 221.326 520.504 215.632 525.596 214.318C530.687 213.004 534.848 212.949 535.286 209.007C535.724 205.119 537.203 201.45 542.404 200.355C547.55 199.315 551.766 199.589 553.573 197.508C556.858 193.894 566.384 190.39 571.257 196.413Z" fill="#263B6D"/>
<path d="M547.334 231.949C540.928 231.62 537.26 232.551 534.03 234.303C530.471 236.22 520.288 241.421 514.156 244.707C508.9 247.499 507.476 247.828 507.476 247.828C507.476 247.828 505.505 243.885 505.341 243.393C505.067 242.571 502.932 241.202 495.815 231.949C495.431 231.456 495.048 230.963 494.665 230.361L487.109 235.179C489.08 240.874 491.216 247.335 491.927 250.401C492.803 254.125 502.494 262.228 502.494 262.228C502.494 262.228 509.064 262.502 525.489 258.012C539.614 254.179 550.181 249.306 556.039 237.041C556.039 237.096 553.74 232.277 547.334 231.949Z" fill="#56529F"/>
<path d="M538.957 235.015C539.012 238.793 532.771 250.62 531.84 246.787C530.909 242.955 527.843 243.557 528.117 246.952C528.391 250.346 529.102 255.055 526.584 251.223C524.065 247.39 521.985 247.883 523.956 251.715C524.777 253.303 526.091 256.041 526.912 257.684C538.957 254.289 549.798 249.58 556.149 238.355L538.957 235.015Z" fill="#454280"/>
<path d="M559.487 232.496C566.057 233.153 578.978 238.355 579.471 246.13C580.894 268.196 568.138 267.704 565.893 282.926C565.181 287.744 566.824 290.92 569.287 297.107C573.065 306.525 573.065 316.381 572.244 316.928C563.922 322.185 561.349 312.931 549.523 315.34C534.412 318.407 521.984 313.096 520.943 311.234C519.52 308.715 528.499 290.098 530.032 285.937C541.201 255.658 531.839 262.721 532.441 252.646C532.715 247.773 536.273 246.568 539.011 235.234C539.23 233.975 539.887 230.635 559.487 232.496Z" fill="#56529F"/>
<path d="M565.729 225.707C565.729 225.707 565.181 228.335 564.36 233.372C564.36 233.372 566.057 233.975 567.645 234.632C568.904 235.125 570.054 235.727 570.054 235.727C556.75 239.505 545.307 250.73 544.376 250.182C543.555 249.744 543.719 245.911 545.198 240.381C546.512 235.563 550.016 232.004 550.454 232.004C551.494 232.004 554.286 232.168 554.286 232.058C555.217 225.269 555.655 224.283 556.093 222.914C557.681 218.096 566.879 219.41 565.729 225.707Z" fill="#FBBE3F"/>
<path d="M556.202 230.251C555.217 229.813 554.724 229.156 554.833 228.226C555.217 225.762 555.436 226.09 556.585 222.586C558.064 217.986 567.316 219.246 566.221 225.269V225.323C563.922 228.225 559.706 231.73 556.202 230.251Z" fill="#F3944F"/>
<path d="M563.702 198.932C554.832 196.249 552.204 201.888 549.412 210.978C547.058 218.589 547.879 225.105 550.452 226.638C554.942 229.321 565.016 227.952 569.834 222.148C579.798 210.047 574.433 202.162 563.702 198.932Z" fill="#FBBE3F"/>
<path d="M559.76 195.427C559.267 195.099 563.975 193.675 570.655 196.96C575.473 199.37 580.674 214.975 579.688 217.439C576.294 226.09 565.454 227.021 565.508 226.857C566.056 223.79 569.505 219.848 569.505 219.848C570.764 219.519 572.462 218.37 572.954 216.289C573.447 214.208 572.078 212.949 570.545 213.989C569.286 214.865 568.684 217.275 567.589 214.208C564.304 213.004 562.716 211.799 561.019 209.609C559.65 207.802 559.212 204.79 559.212 204.79C557.624 205.995 550.233 208.897 549.083 206.652C545.58 199.698 557.734 196.194 559.76 195.427Z" fill="#263B6D"/>
<path d="M559.651 417.568C559.651 417.568 557.79 417.842 555.928 418.334C553.519 418.937 548.428 421.017 548.428 421.017C548.428 421.017 549.139 418.827 549.03 418.991C548.592 419.484 548.099 419.922 547.552 420.415C544.431 423.153 542.077 422.715 541.146 426.438C541.091 426.712 542.624 426.767 547.497 426.767C550.289 426.767 553.574 426.931 554.833 425.015C555.107 424.577 555.49 424.193 555.874 423.865C555.928 424.303 555.709 425.015 555.819 425.015C557.845 425.015 559.213 425.015 559.213 425.015C559.213 425.015 560.582 423.153 560.144 419.43C560.035 418.937 559.87 418.334 559.651 417.568Z" fill="#56529F"/>
<path d="M535.564 417.568C535.564 417.568 523.19 418.444 522.478 418.773C521.438 419.265 520.398 419.703 519.303 419.977C514.321 421.291 513.992 425.015 513.992 425.015C513.992 425.015 514.594 425.015 515.197 425.015C518.372 425.015 519.084 425.015 523.354 425.015C524.011 425.015 530.855 423.481 531.403 423.481C532.224 423.481 531.567 425.015 531.786 425.015C534.14 425.015 535.728 425.015 535.728 425.015C535.728 425.015 537.589 422.715 536.056 418.937C535.783 418.553 535.673 418.061 535.564 417.568Z" fill="#56529F"/>
<path d="M559.323 422.167C559.323 422.167 558.939 422.331 558.337 422.55C557.735 422.824 556.969 423.208 556.312 423.7C556.147 423.81 555.983 423.974 555.819 424.084C555.655 424.248 555.49 424.357 555.381 424.522C555.217 424.686 555.107 424.795 554.998 424.96C554.888 425.124 554.779 425.233 554.669 425.398C554.45 425.617 554.231 425.836 554.067 425.891C553.903 426 553.793 426.055 553.793 426.055H553.738V426C553.738 426 553.848 425.945 553.957 425.836C554.122 425.726 554.341 425.562 554.505 425.288C554.614 425.179 554.669 425.014 554.779 424.85C554.888 424.686 554.998 424.522 555.162 424.357C555.271 424.193 555.436 424.029 555.6 423.865C555.764 423.7 555.928 423.591 556.093 423.427C557.461 422.277 559.104 421.62 559.104 421.62C559.268 421.565 559.377 421.62 559.487 421.784C559.542 421.948 559.487 422.058 559.323 422.167Z" fill="#1B1733"/>
<path d="M562.06 271.756C567.425 265.185 574.542 255.493 575.747 260.093C577.006 264.911 567.206 272.796 564.797 281.338C559.651 299.243 550.288 293.329 544.923 297.655C538.681 302.637 536.984 294.753 529.429 299.845C525.706 302.309 524.008 299.9 525.487 296.286C528.553 288.894 531.783 280.516 532.002 280.407C538.079 276.027 543.39 287.908 561.293 265.952C567.808 258.012 562.06 271.756 562.06 271.756Z" fill="#454280"/>
<path d="M530.58 272.029C529.266 271.318 516.509 267.43 515.25 267.101C513.553 266.609 512.512 265.952 511.034 265.514C509.337 264.966 507.749 265.076 507.038 265.295C505.45 265.787 504.629 266.225 503.369 266.171C503.205 266.171 502.986 266.171 502.877 266.335C502.603 266.937 503.369 267.375 503.588 267.485C504.245 267.813 505.997 267.211 507.64 267.759C505.997 269.511 504.793 269.784 502.877 270.551C499.811 271.756 498.387 272.905 499.044 273.563C499.701 274.22 501.563 272.686 502.986 272.522C504.026 272.413 504.902 271.975 504.957 272.303C505.012 272.577 504.026 273.234 502.877 273.453C501.617 273.672 499.756 274.603 499.592 275.096C499.208 276.081 501.234 276.629 501.727 277.012C503.369 278.162 506.435 276.3 508.352 275.698C510.268 275.096 512.403 271.756 513.06 271.591C515.414 271.044 525.652 279.038 526.857 279.859L530.58 272.029Z" fill="#FBBE3F"/>
<path d="M568.137 241.75C564.633 242.9 561.95 247.116 560.198 250.346C558.282 253.905 552.369 264.254 549.03 270.387C546.183 275.588 545.197 276.683 545.197 276.683C545.197 276.683 541.419 274.439 540.981 274.11C540.27 273.562 537.751 273.617 526.746 269.784C526.199 269.565 525.542 269.346 524.94 269.073L521.271 277.231C526.035 280.954 531.345 285.17 533.59 287.306C536.382 289.934 548.92 291.467 548.92 291.467C548.92 291.467 554.614 288.072 565.838 275.369C575.528 264.418 579.963 254.782 578.704 247.39C578.156 244.707 574.214 239.724 568.137 241.75Z" fill="#56529F"/>
<path d="M568.137 241.75C564.633 242.9 561.95 247.116 560.198 250.346C558.282 253.905 552.369 264.254 549.029 270.387C546.182 275.588 545.416 276.136 545.416 276.136" stroke="#454280" stroke-miterlimit="10" stroke-linecap="round" stroke-linejoin="round"/>
<path d="M559.324 311.07C559.215 309.044 559.05 307.073 558.996 305.047C558.941 303.678 558.886 302.254 559.269 300.885C559.379 300.502 559.653 300.009 560.036 300.009C560.255 300.009 560.419 300.119 560.584 300.228C561.405 300.776 561.788 301.761 562.117 302.692C563.65 306.854 564.799 311.179 565.566 315.56" stroke="#454280" stroke-miterlimit="10" stroke-linecap="round" stroke-linejoin="round"/>
<path d="M566.221 304.225C567.48 307.839 568.52 311.508 569.396 315.231" stroke="#454280" stroke-miterlimit="10" stroke-linecap="round" stroke-linejoin="round"/>
<path d="M472.654 16.4882L500.139 0.828308L527.678 16.4882V47.8628L500.139 63.5227L472.654 47.8628V16.4882Z" fill="#272E45"/>
<path d="M58.8555 100.318L97.6182 78.197L136.436 100.318V144.56L97.6182 166.681L58.8555 144.56V100.318Z" fill="#378ECD"/>
<path d="M201.643 24.8657L235.04 5.81097L268.382 24.8657V62.9203L235.04 81.9203L201.643 62.9203V24.8657Z" fill="#272E45"/>
<path d="M486.341 40.0875L337.477 125.286" stroke="#9DD7EE" stroke-width="2" stroke-miterlimit="10" stroke-linecap="round" stroke-linejoin="round" stroke-dasharray="12 12"/>
<path d="M429.621 72.831L356.803 31.7101L283.932 72.831V155.073L356.803 196.139L429.621 155.073V72.831Z" fill="#3C996C"/>
<path d="M429.62 72.831L356.803 31.7101V196.139L429.62 155.073V72.831Z" fill="#39805E"/>
<path d="M356.803 114.39L284.205 73.05L356.803 32.2029L429.62 73.05L356.803 114.39Z" fill="#53B685"/>
<path d="M218.232 53.174L135.615 100.975" stroke="#9DD7EE" stroke-width="2" stroke-miterlimit="10" stroke-linecap="round" stroke-linejoin="round" stroke-dasharray="12 12"/>
<path d="M268.986 163.998L219.492 135.744L169.943 163.998V220.395L219.492 248.594L268.986 220.395V163.998Z" fill="#3CB9EC"/>
<path d="M97.6191 78.197L136.437 100.318V144.56L97.6191 166.681V78.197Z" fill="#116DB1"/>
<path d="M268.986 163.998L219.492 135.744V248.594L268.986 220.395V163.998Z" fill="#378ECD"/>
<path d="M219.492 192.197L169.943 163.998L219.492 135.744L268.986 163.998L219.492 192.197Z" fill="#9DD7EE"/>
<path d="M514.374 160.658L475.447 138.482L436.52 160.658V204.955L475.447 227.13L514.374 204.955V160.658Z" fill="#378ECD"/>
<path d="M500.139 0.828308L527.678 16.4882V47.8628L500.139 63.5227V0.828308Z" fill="#191D2B"/>
<path d="M235.039 5.81097L268.382 24.8657V62.9203L235.039 81.9203V5.81097Z" fill="#191D2B"/>
<path d="M514.374 160.658L475.447 138.482V227.13L514.374 204.955V160.658Z" fill="#116DB1"/>
<path d="M320.011 134.704L269.039 163.943" stroke="#9DD7EE" stroke-width="2" stroke-miterlimit="10" stroke-linecap="round" stroke-linejoin="round" stroke-dasharray="12 12"/>
<path d="M169.943 163.56L117 133.007" stroke="#9DD7EE" stroke-width="2" stroke-miterlimit="10" stroke-linecap="round" stroke-linejoin="round" stroke-dasharray="12 12"/>
<path d="M284.205 72.5571L251.629 53.7762" stroke="#9DD7EE" stroke-width="2" stroke-miterlimit="10" stroke-linecap="round" stroke-linejoin="round" stroke-dasharray="12 12"/>
<path d="M437.23 160.822L393.32 135.471" stroke="#9DD7EE" stroke-width="2" stroke-miterlimit="10" stroke-linecap="round" stroke-linejoin="round" stroke-dasharray="12 12"/>
<path d="M500.139 32.2029L527.678 16.4882L500.139 0.828308L472.654 16.4882L500.139 32.2029Z" fill="#263B6D"/>
<path d="M234.985 43.8656L268.382 24.8657L234.985 5.81097L201.643 24.8657L234.985 43.8656Z" fill="#263B6D"/>
<path d="M475.447 182.834L436.52 160.658L475.447 138.482L514.374 160.658L475.447 182.834Z" fill="#3CB9EC"/>
<path d="M97.6183 122.439L136.436 100.318L97.6183 78.197L58.8008 100.318L97.6183 122.439Z" fill="#3CB9EC"/>
<path d="M589.982 84.8771L515.029 40.3613" stroke="#9DD7EE" stroke-width="2" stroke-miterlimit="10" stroke-linecap="round" stroke-linejoin="round" stroke-dasharray="12 12"/>
<path d="M551.164 61.9347L578.648 46.2201L606.187 61.9347V93.2545L578.648 108.969L551.164 93.2545V61.9347Z" fill="#272E45"/>
<path d="M578.648 46.2201L606.188 61.9347V93.2545L578.648 108.969V46.2201Z" fill="#191D2B"/>
<path d="M578.648 77.5946L606.187 61.9347L578.648 46.2201L551.164 61.9347L578.648 77.5946Z" fill="#263B6D"/>
<path d="M405.698 190.992C405.698 190.992 401.153 186.557 400.277 184.038C399.347 181.52 397.047 180.972 394.529 179.275C392.01 177.577 390.587 177.358 390.751 176.099C390.97 174.839 391.572 175.497 394.091 176.044C396.609 176.592 397.65 176.373 397.212 174.839C396.883 173.744 396.719 171.773 396.445 171.335C395.898 170.459 394.693 168.488 394.036 167.612C392.229 165.093 391.791 164.381 392.503 163.889C393.105 163.45 394.638 164.6 396.117 166.845C397.595 169.09 398.909 168.597 397.157 166.024C394.748 162.52 395.295 161.534 396.828 162.191C398.361 162.848 399.292 162.246 401.318 163.669C402.577 164.546 404.219 167.174 404.438 167.721C404.603 168.159 405.588 169.747 405.971 171.226C406.409 172.759 404.822 179.439 407.231 184.257C409.64 189.076 410.406 191.375 410.406 191.375C410.406 191.375 407.285 196.358 405.698 190.992Z" fill="#FBBE3F"/>
<path d="M377.391 228.006C377.391 228.006 377.172 231.456 376.132 236.548C375.42 239.943 369.343 243.831 368.248 243.338C366.77 242.626 365.237 237.369 365.401 235.179C365.894 228.499 366.222 227.514 367.536 222.75C368.905 217.932 378.267 221.819 377.391 228.006Z" fill="#FBBE3F"/>
<path d="M378.486 202.819C370.383 198.822 366.934 203.86 362.828 212.128C359.378 219.081 359.105 225.488 361.349 227.404C365.237 230.69 374.325 232.606 379.855 227.787C391.352 217.767 388.341 207.692 378.486 202.819Z" fill="#FBBE3F"/>
<path d="M365.73 219.739C366.66 219.793 368.029 219.246 369.288 216.782C370.712 214.044 369.343 212.511 367.974 212.675C366.606 212.894 365.949 213.989 365.73 214.482C365.018 216.398 363.375 212.073 362.664 209.28C361.733 205.557 363.375 200.41 365.401 198.165C368.412 194.825 369.726 198.603 370.219 197.508C371.04 195.701 372.847 193.839 373.778 193.62C375.694 193.073 377.775 195.427 378.158 198.001C378.213 198.494 381.881 192.635 383.688 199.096C384.947 203.476 387.246 204.243 388.122 207.09C388.67 208.788 387.903 210.156 387.246 210.868C389.71 213.168 392.612 217.056 389.217 221.545C383.578 228.937 377.884 231.785 376.132 231.675C365.182 230.854 365.73 219.739 365.73 219.739Z" fill="#263B6D"/>
<path d="M391.407 415.323C391.407 415.159 391.626 412.476 391.626 412.312C393.323 412.585 396.608 412.695 397.265 412.64C398.47 416.035 398.47 416.747 399.455 419.156C400.988 422.824 399.182 425.015 399.182 425.015C399.182 425.015 384.235 425.015 378.048 425.015C377.446 425.015 376.898 425.015 376.898 425.015C376.898 425.015 377.227 421.456 382.045 420.142C386.918 418.937 391.352 417.897 391.407 415.323Z" fill="#378ECD"/>
<path d="M387.628 302.528C387.628 302.528 391.187 313.917 391.406 324.977C391.734 343.43 389.654 353.669 393.103 365.934C393.815 368.453 397.209 379.678 397.647 382.908C397.647 382.963 397.045 386.139 397.428 394.023C397.866 403.386 398.469 415.871 398.469 415.871C398.469 415.871 397.538 417.623 394.034 417.678C390.804 417.732 390.202 417.185 390.202 417.185C390.202 417.185 379.963 377.98 376.131 366.317C373.065 356.954 360.308 335.381 359.268 309.701C358.885 301.542 384.453 282.433 387.628 302.528Z" fill="#263B6D"/>
<path d="M389.38 419.922C388.669 418.882 387.574 418.061 386.314 417.787" stroke="#1B1733" stroke-miterlimit="10" stroke-linecap="round" stroke-linejoin="round"/>
<path d="M387.027 420.853C386.37 419.868 385.329 419.101 384.18 418.773" stroke="#1B1733" stroke-miterlimit="10" stroke-linecap="round" stroke-linejoin="round"/>
<path d="M391.407 408.807C389.764 401.142 388.505 389.752 386.315 387.727C382.209 383.894 383.468 379.24 383.194 372.121C382.921 365.003 378.541 360.349 374.708 344.47C370.876 328.591 372.792 322.842 373.613 319.283L390.531 315.45C389.436 308.222 387.629 302.528 387.629 302.528C384.454 282.433 358.886 301.542 359.214 309.81C360.254 335.49 373.011 357.064 376.077 366.427C379.909 378.035 390.148 417.294 390.148 417.294C390.148 417.294 390.586 417.732 392.83 417.787C392.502 414.83 392.009 411.654 391.407 408.807Z" fill="#1F305B"/>
<path d="M331.29 415.323C331.728 414.173 332.33 412.366 332.056 412.312C333.754 412.585 338.462 412.695 339.174 412.64C338.517 416.254 338.407 416.747 339.393 419.156C340.926 422.824 339.119 425.015 339.119 425.015C339.119 425.015 324.172 425.015 317.986 425.015C317.383 425.015 316.836 425.015 316.836 425.015C316.836 425.015 317.164 421.456 321.982 420.142C326.8 418.937 330.085 418.28 331.29 415.323Z" fill="#378ECD"/>
<path d="M373.339 302.528C373.339 302.528 372.627 313.479 368.083 324.539C358.174 348.467 352.808 361.335 352.425 365.989C352.206 368.508 351.549 379.732 350.782 382.963C350.782 383.018 349.03 386.193 346.457 394.078C343.446 403.441 339.559 415.925 339.559 415.925C339.559 415.925 338.683 417.404 334.576 416.966C331.346 416.582 330.854 415.432 330.854 415.432C330.854 415.432 334.85 378.035 335.288 366.427C335.617 357.064 334.029 335.49 342.296 309.81C344.979 301.542 377.5 282.433 373.339 302.528Z" fill="#263B6D"/>
<path d="M329.267 419.922C328.555 418.882 327.46 418.061 326.201 417.787" stroke="#1B1733" stroke-miterlimit="10" stroke-linecap="round" stroke-linejoin="round"/>
<path d="M326.857 420.853C326.2 419.868 325.16 419.101 324.01 418.773" stroke="#1B1733" stroke-miterlimit="10" stroke-linecap="round" stroke-linejoin="round"/>
<path d="M366.003 233.208C369.507 233.099 377.172 233.81 382.483 234.741C386.425 235.453 390.914 232.223 391.79 231.62C392.94 230.854 390.476 237.753 391.298 238.41C404.602 249.525 387.794 276.465 388.177 293.712C388.505 307.237 393.707 318.516 391.079 318.297C378.979 317.366 366.168 323.882 355.053 319.94C345.363 316.49 340.983 314.738 340.435 312.822C339.997 311.234 341.53 303.787 344.377 290.975C345.91 284.021 342.133 271.263 341.749 255.274C341.585 249.306 340.326 244.214 343.939 239.231C344.651 238.355 351.385 233.646 366.003 233.208Z" fill="#9DD7EE"/>
<path d="M425.242 208.295C423.928 203.257 408.324 184.586 406.846 183.107C405.368 181.629 401.042 187.324 401.042 187.324C401.042 187.324 404.601 190.226 405.86 195.482C407.01 200.246 408.105 212.456 408.105 212.456C408.105 212.456 408.872 213.77 410.021 215.632C409.857 215.851 409.693 216.07 409.529 216.344C399.893 231.347 378.595 234.303 373.722 249.744C369.288 263.707 403.616 266.28 418.124 231.401C419.986 226.966 419.822 227.568 420.862 225.871C421.3 225.104 422.888 223.626 423.435 222.86C423.983 222.038 426.008 211.142 425.242 208.295Z" fill="#9DD7EE"/>
<path d="M316.125 194.716C316.125 194.716 318.863 189.021 318.863 186.338C318.863 183.655 320.834 182.341 322.64 179.932C324.447 177.468 325.706 176.811 325.104 175.661C324.502 174.511 324.119 175.387 321.983 176.756C319.848 178.125 318.753 178.289 318.644 176.701C318.589 175.551 318.041 173.635 318.151 173.142C318.315 172.102 318.808 169.857 319.136 168.816C320.012 165.86 320.122 165.038 319.301 164.765C318.534 164.546 317.549 166.134 316.946 168.762C316.344 171.39 314.921 171.39 315.687 168.324C316.727 164.217 315.906 163.505 314.647 164.6C313.388 165.695 312.348 165.476 310.924 167.502C310.048 168.762 309.391 171.773 309.391 172.376C309.391 172.868 309.008 174.675 309.117 176.154C309.282 177.742 313.059 183.491 312.457 188.802C311.855 194.113 311.964 196.577 311.964 196.577C311.964 196.577 316.454 200.246 316.125 194.716Z" fill="#FBBE3F"/>
<path d="M365.674 243.283C356.75 229.813 334.631 230.361 322.039 221.107C321.436 220.669 320.889 220.177 320.451 219.738C320.944 217.439 321.272 215.687 321.272 215.687C321.272 215.687 317.987 203.86 317.44 198.986C316.837 193.62 319.137 189.678 319.137 189.678C319.137 189.678 313.114 185.9 312.238 187.762C311.362 189.623 302.876 212.62 303.643 217.713C305.121 227.295 310.979 231.839 311.308 231.785C312.184 231.894 313.552 232.277 314.374 233.372C316.345 236.001 314.866 234.194 317.878 237.972C323.517 245.035 329.922 249.142 335.562 252.591C337.259 253.632 341.584 256.862 342.132 262.502C343.61 277.888 370.875 251.168 365.674 243.283Z" fill="#9DD7EE"/>
<path d="M78.8939 425.781C78.8939 425.781 58.9651 399.115 55.2968 377.597C50.7526 350.822 59.0746 316.381 59.0746 316.381C59.0746 316.381 77.2515 338.83 84.5332 370.807C91.8696 402.729 78.8939 425.781 78.8939 425.781Z" stroke="#272E45" stroke-width="2" stroke-miterlimit="10" stroke-linecap="round" stroke-linejoin="round"/>
<path d="M583.194 425.726C583.085 425.726 582.975 425.671 582.866 425.617C582.592 425.452 582.537 425.124 582.756 424.85C591.735 412.037 599.455 399.444 605.696 387.343C618.453 362.594 628.417 321.035 628.527 320.597C628.582 320.323 628.91 320.104 629.184 320.213C629.458 320.268 629.677 320.597 629.567 320.871C629.458 321.309 619.493 362.977 606.682 387.836C600.44 399.991 592.666 412.64 583.687 425.507C583.523 425.617 583.358 425.726 583.194 425.726Z" fill="#1B2747"/>
<path d="M637.617 296.121C642.653 297.764 643.639 302.418 641.832 307.839C640.025 313.26 633.62 322.842 628.419 323.937C624.915 319.995 625.462 308.441 627.269 303.021C629.021 297.6 632.58 294.424 637.617 296.121Z" fill="#1B2747"/>
<path d="M650.975 323.608C653.329 328.372 650.756 332.314 645.664 334.888C640.573 337.461 629.239 339.652 624.805 336.75C625.133 331.438 633.674 323.718 638.766 321.144C643.858 318.571 648.621 318.845 650.975 323.608Z" fill="#1B2747"/>
<path d="M645.991 349.288C647.578 354.326 644.403 357.83 638.983 359.582C633.562 361.28 622.01 361.718 618.123 358.159C619.273 352.957 628.963 346.66 634.384 344.963C639.749 343.211 644.403 344.251 645.991 349.288Z" fill="#1B2747"/>
<path d="M637.178 372.34C638.766 377.378 635.59 380.882 630.17 382.634C624.75 384.332 613.198 384.77 609.311 381.211C610.46 376.009 620.151 369.712 625.571 368.015C630.991 366.317 635.536 367.303 637.178 372.34Z" fill="#1B2747"/>
<path d="M592.667 368.124C597.704 366.536 601.208 369.712 602.96 375.133C604.657 380.554 605.095 392.107 601.536 395.994C596.335 394.845 590.039 385.153 588.341 379.732C586.589 374.366 587.63 369.712 592.667 368.124Z" fill="#1B2747"/>
<path d="M599.29 344.798C603.889 342.17 607.996 344.525 610.843 349.453C613.69 354.381 616.537 365.551 613.909 370.15C608.598 370.15 600.385 362.046 597.538 357.064C594.637 352.19 594.692 347.427 599.29 344.798Z" fill="#1B2747"/>
<path d="M607.505 320.871C612.104 318.243 616.21 320.652 619.002 325.58C621.794 330.508 624.587 341.732 621.904 346.332C616.593 346.277 608.435 338.119 605.588 333.191C602.741 328.263 602.906 323.499 607.505 320.871Z" fill="#1B2747"/>
<path d="M583.357 424.631C583.357 424.631 596.607 405.905 609.966 398.896C626.555 390.245 650.919 388.384 650.919 388.384C650.919 388.384 640.078 405.084 620.642 416.637C601.206 428.245 583.357 424.631 583.357 424.631Z" fill="#272E45"/>
<path d="M650.424 388.548C645.716 389.643 622.392 400.703 618.943 402.291C606.077 408.26 594.47 416.692 583.027 425.069" stroke="#1B1733" stroke-miterlimit="10" stroke-linecap="round" stroke-linejoin="round"/>
<path d="M640.46 400.868C638.763 399.116 632.302 396.706 629.291 397.473" stroke="#1B1733" stroke-miterlimit="10" stroke-linecap="round" stroke-linejoin="round"/>
<path d="M643.254 397.582C641.447 396.433 636.465 395.064 632.852 395.83" stroke="#1B1733" stroke-miterlimit="10" stroke-linecap="round" stroke-linejoin="round"/>
<path d="M618.068 402.565C619.492 400.649 619.93 397.199 619.382 394.845" stroke="#1B1733" stroke-miterlimit="10" stroke-linecap="round" stroke-linejoin="round"/>
<path d="M615.059 403.989C615.935 402.072 615.989 398.623 615.497 396.542" stroke="#1B1733" stroke-miterlimit="10" stroke-linecap="round" stroke-linejoin="round"/>
<path d="M77.197 425.452C77.197 425.452 43.5807 406.234 28.6341 385.974C10.0192 360.787 0 323.006 0 323.006C0 323.006 29.6743 338.666 53.7094 368.015C77.7445 397.308 77.197 425.452 77.197 425.452Z" fill="#1B2747"/>
<path d="M6.35156 331.274C12.2645 335.819 37.8874 365.879 41.6651 370.26C55.9 386.686 66.7952 405.741 77.5809 424.686" stroke="#1B1733" stroke-miterlimit="10" stroke-linecap="round" stroke-linejoin="round"/>
<path d="M13.9062 354.161C18.3957 353.559 26.5534 354.161 30.2764 357.118" stroke="#1B1733" stroke-miterlimit="10" stroke-linecap="round" stroke-linejoin="round"/>
<path d="M13.9609 348.741C17.3007 348.85 21.7354 349.124 26.2249 352.519" stroke="#1B1733" stroke-miterlimit="10" stroke-linecap="round" stroke-linejoin="round"/>
<path d="M42.7595 371.245C41.993 367.631 42.9785 363.634 45.1685 360.677" stroke="#1B1733" stroke-miterlimit="10" stroke-linecap="round" stroke-linejoin="round"/>
<path d="M46.0977 375.078C46.0977 371.793 47.1927 368.562 49.2184 365.989" stroke="#1B1733" stroke-miterlimit="10" stroke-linecap="round" stroke-linejoin="round"/>
</svg>
