<svg xmlns="http://www.w3.org/2000/svg" width="25" height="29" viewBox="0 0 25 29" fill="none">
    <path d="M22.1163 7.65358L22.9431 6.82693C23.1731 6.93353 23.4545 6.89368 23.6445 6.70361L23.7917 6.55662C24.0348 6.31295 24.0348 5.91765 23.7917 5.67429L22.7323 4.61504C22.4885 4.3712 22.0935 4.3712 21.8498 4.61504L21.7031 4.76203C21.4595 5.00564 21.4595 5.4007 21.7031 5.64436L21.7359 5.67661L20.9704 6.4427C19.012 4.6336 16.4681 3.4402 13.6341 3.18322V2.41986H13.7449C14.3182 2.41986 14.782 1.95556 14.782 1.38298V1.037C14.782 0.464008 14.3173 0 13.7449 0H11.2552C10.6822 0 10.2182 0.464306 10.2182 1.03694V1.38292C10.2182 1.95579 10.6825 2.4198 11.2552 2.4198H11.3656V3.17929C5.25726 3.72557 0.363821 8.69462 0.0192648 14.9387C-0.360806 21.8209 4.92889 27.7284 11.8113 28.1086C12.0456 28.1216 12.2778 28.1278 12.5098 28.1278C19.1377 28.1278 24.6155 22.94 24.9808 16.3163C25.1614 13.0449 24.0595 9.99551 22.1163 7.65358ZM23.0176 16.2403C22.6898 22.1817 17.9028 26.4737 11.8933 26.1451C5.929 25.8156 1.65971 21.0154 1.98856 15.0505C2.30533 9.31098 6.74464 4.96727 12.4882 4.96727C12.6899 4.96727 12.891 4.97298 13.0951 4.98398C19.0592 5.31325 23.3467 10.2767 23.0176 16.2403Z" fill="#1F2843"/>
    <path d="M10.9412 19.8393L6.21191 15.7941L7.60989 14.3069L10.9412 17.1921L17.4254 11.1243L18.8234 12.6412L10.9412 19.8393Z" fill="#1F2843"/>
</svg>