<svg width="42" height="42" viewBox="0 0 42 42" fill="none" xmlns="http://www.w3.org/2000/svg">
<path d="M0 21C0 9.40202 9.40202 0 21 0C32.598 0 42 9.40202 42 21C42 32.598 32.598 42 21 42C9.40202 42 0 32.598 0 21Z" fill="#3C5A99"/>
<path d="M22.3418 30V21.7893H24.9953L25.3926 18.5895H22.3418V16.5466C22.3418 15.6202 22.5895 14.9888 23.8686 14.9888L25.5 14.9881V12.1261C25.2179 12.0871 24.2494 12 23.1227 12C20.7706 12 19.1603 13.4912 19.1603 16.2297V18.5895H16.5V21.7893H19.1603V30H22.3418Z" fill="white"/>
</svg>
