<svg width="16" height="16" viewBox="0 0 16 16" fill="none" xmlns="http://www.w3.org/2000/svg">
<path d="M4.66732 14.6666H2.66732C2.3137 14.6666 1.97456 14.5261 1.72451 14.2761C1.47446 14.026 1.33398 13.6869 1.33398 13.3333V8.66659C1.33398 8.31296 1.47446 7.97383 1.72451 7.72378C1.97456 7.47373 2.3137 7.33325 2.66732 7.33325H4.66732M9.33398 5.99992V3.33325C9.33398 2.80282 9.12327 2.29411 8.7482 1.91904C8.37313 1.54397 7.86442 1.33325 7.33398 1.33325L4.66732 7.33325V14.6666H12.1873C12.5089 14.6702 12.8209 14.5575 13.0659 14.3493C13.3109 14.141 13.4724 13.8512 13.5207 13.5333L14.4407 7.53325C14.4697 7.34216 14.4568 7.14704 14.4029 6.96142C14.349 6.7758 14.2554 6.60412 14.1286 6.45826C14.0017 6.31241 13.8447 6.19587 13.6684 6.11673C13.492 6.03759 13.3006 5.99773 13.1073 5.99992H9.33398Z" stroke="#637B94" stroke-linecap="round" stroke-linejoin="round"/>
</svg>
