<svg width="42" height="42" viewBox="0 0 42 42" fill="none" xmlns="http://www.w3.org/2000/svg">
<path d="M0 21C0 9.40202 9.40202 0 21 0C32.598 0 42 9.40202 42 21C42 32.598 32.598 42 21 42C9.40202 42 0 32.598 0 21Z" fill="#0088CC"/>
<path d="M19.0516 23.5031L25.7223 28.2039C26.4836 28.6045 27.0329 28.397 27.2226 27.5298L29.9379 15.3253C30.2158 14.2622 29.513 13.7799 28.7847 14.0953L12.8404 19.9593C11.752 20.3757 11.7585 20.9549 12.642 21.2129L16.7337 22.4311L26.2064 16.7309C26.6536 16.4723 27.0641 16.6112 26.7272 16.8965" fill="white"/>
</svg>
