<svg width="42" height="42" viewBox="0 0 42 42" fill="none" xmlns="http://www.w3.org/2000/svg">
<path d="M0 21C0 9.40202 9.40202 0 21 0C32.598 0 42 9.40202 42 21C42 32.598 32.598 42 21 42C9.40202 42 0 32.598 0 21Z" fill="#41ABE1"/>
<path fill-rule="evenodd" clip-rule="evenodd" d="M30 15.7374C29.3367 16.031 28.6251 16.2303 27.8786 16.3192C28.6412 15.8613 29.2266 15.134 29.5005 14.2694C28.7862 14.6949 27.9967 15.002 27.1562 15.169C26.4822 14.4498 25.5235 14 24.4601 14C22.4219 14 20.7677 15.6593 20.7677 17.7037C20.7677 17.9946 20.7999 18.2774 20.8644 18.5468C17.795 18.3933 15.0747 16.9172 13.2541 14.6761C12.9372 15.2229 12.7546 15.8586 12.7546 16.5374C12.7546 17.8222 13.4071 18.9562 14.398 19.6189C13.7938 19.6 13.2245 19.433 12.725 19.1556C12.725 19.1717 12.725 19.1852 12.725 19.2013C12.725 20.9953 13.9979 22.4929 15.687 22.8323C15.3782 22.9158 15.0506 22.9616 14.7149 22.9616C14.4759 22.9616 14.245 22.9374 14.0194 22.8943C14.4893 24.365 15.8535 25.437 17.4674 25.4667C16.2026 26.4606 14.6129 27.0532 12.8808 27.0532C12.5827 27.0532 12.29 27.0343 12 27.002C13.6327 28.0525 15.5742 28.6667 17.6607 28.6667C24.452 28.6667 28.1659 23.0236 28.1659 18.1293C28.1659 17.9677 28.1632 17.8088 28.1552 17.6498C28.8775 17.1273 29.5032 16.4754 29.9973 15.732L30 15.7374Z" fill="white"/>
</svg>
